 <svg  version="1.0" xmlns="http://www.w3.org/2000/svg"  width="1350.000000pt" height="1350.000000pt" viewBox="0 0 1350.000000 1350.000000"  preserveAspectRatio="xMidYMid meet">  <g transform="translate(0.000000,1350.000000) scale(0.100000,-0.100000)" fill="#7c7d88" stroke="none"> <path d="M6730 12394 c-62 -17 -417 -23 -1325 -23 -714 -1 -1061 -4 -1085 -11 -19 -6 -98 -13 -175 -16 -79 -3 -181 -14 -234 -25 -51 -11 -102 -17 -113 -13 -10 3 -40 1 -66 -5 -26 -6 -111 -20 -189 -31 -78 -11 -157 -26 -175 -34 -18 -8 -58 -19 -88 -25 -89 -17 -232 -59 -243 -70 -6 -6 -19 -11 -28 -11 -9 0 -22 -6 -29 -14 -6 -8 -17 -13 -24 -10 -7 3 -61 -18 -119 -46 -58 -27 -111 -50 -118 -50 -6 0 -24 -9 -40 -21 -16 -11 -37 -22 -47 -24 -43 -8 -242 -136 -242 -156 0 -4 -11 -14 -24 -21 -42 -23 -130 -85 -157 -109 -14 -13 -64 -59 -112 -103 -48 -43 -87 -83 -87 -88 0 -5 -17 -27 -39 -49 -21 -22 -47 -56 -57 -75 -10 -19 -26 -34 -36 -34 -9 0 -19 -9 -23 -20 -3 -11 -23 -41 -43 -68 -51 -66 -57 -77 -96 -158 -18 -39 -39 -75 -45 -79 -17 -10 -133 -257 -163 -345 -14 -41 -35 -109 -47 -150 -13 -41 -29 -96 -37 -121 -8 -26 -14 -57 -14 -68 0 -12 -5 -31 -11 -42 -16 -30 -68 -339 -69 -407 0 -24 -7 -56 -15 -71 -10 -20 -14 -60 -13 -137 0 -60 -6 -131 -13 -159 -9 -35 -13 -164 -14 -440 -2 -320 -5 -403 -18 -460 -15 -63 -16 -224 -14 -1700 2 -896 6 -1645 10 -1663 4 -19 10 -38 14 -44 3 -6 8 -178 10 -381 2 -203 7 -374 11 -381 9 -14 10 -28 21 -281 10 -222 23 -337 47 -421 8 -28 13 -66 12 -84 -2 -18 2 -35 8 -37 7 -2 14 19 18 57 6 49 4 67 -9 86 -12 19 -17 56 -20 138 -2 63 -8 131 -14 152 -6 22 -13 127 -16 234 -6 196 -12 309 -22 408 -3 29 -1 65 3 80 7 26 8 25 13 -13 4 -24 12 -41 21 -43 15 -2 16 71 10 797 0 127 -12 49 -16 -116 -5 -199 -10 -241 -27 -224 -15 15 -18 3435 -4 3465 21 43 29 -22 33 -247 2 -127 6 -233 9 -235 5 -5 9 280 10 779 0 229 -3 289 -14 303 -10 12 -14 53 -15 150 -1 126 4 159 22 142 4 -4 8 -68 10 -142 2 -74 7 -134 11 -134 12 0 21 117 21 268 0 78 5 142 11 154 6 11 13 66 16 122 3 55 10 103 14 106 5 3 12 46 15 95 4 50 10 95 15 100 4 6 11 42 15 80 4 39 11 75 16 82 11 13 23 57 40 138 5 28 13 55 18 60 4 6 10 27 14 47 4 20 13 50 21 65 8 15 15 36 15 45 0 10 7 34 16 55 9 21 23 52 30 68 35 83 154 314 178 345 6 8 20 31 30 50 34 63 168 223 292 348 67 67 124 122 128 122 5 0 71 48 107 79 59 49 198 139 249 161 13 6 27 15 30 19 3 4 37 22 75 40 39 18 84 39 100 46 17 8 42 17 58 21 15 3 27 10 27 15 0 5 12 9 28 9 34 0 57 14 48 29 -10 16 -59 14 -82 -4 -21 -16 -69 -20 -59 -5 3 6 14 10 24 10 9 0 23 6 29 13 18 17 92 17 92 0 0 -14 34 -16 65 -3 22 9 16 13 -39 25 -32 7 -26 20 16 30 21 5 29 2 38 -14 13 -25 66 -29 96 -6 10 8 35 15 54 15 20 0 44 6 55 14 11 7 39 17 63 21 24 4 56 13 70 21 19 10 43 13 84 8 48 -5 59 -3 77 15 17 17 28 20 65 15 24 -4 61 -3 81 0 32 6 36 11 35 34 -4 52 -3 52 65 52 37 0 65 -4 65 -10 0 -5 -13 -10 -29 -10 -16 0 -42 -5 -58 -11 -22 -8 -24 -12 -13 -19 18 -11 199 -10 206 1 2 4 -6 15 -18 24 -23 16 -23 16 -3 28 11 7 29 15 40 19 31 10 128 9 145 -2 11 -7 1 -10 -35 -10 -27 0 -57 -5 -65 -10 -34 -22 22 -29 253 -29 132 0 242 -3 245 -6 14 -14 -25 -17 -270 -22 -160 -3 -268 -10 -276 -16 -7 -6 -64 -13 -125 -15 -81 -3 -114 -8 -120 -18 -6 -10 -32 -14 -98 -14 -67 0 -94 -4 -105 -15 -10 -9 -34 -15 -64 -15 -26 0 -61 -7 -76 -15 -16 -8 -46 -15 -67 -15 -21 0 -45 -7 -53 -15 -9 -9 -34 -15 -58 -15 -27 0 -48 -6 -56 -15 -7 -9 -29 -15 -52 -15 -22 0 -46 -7 -54 -15 -9 -8 -27 -15 -42 -15 -15 0 -36 -7 -46 -15 -11 -8 -28 -15 -39 -15 -10 0 -25 -7 -33 -15 -9 -8 -26 -15 -39 -15 -12 0 -25 -7 -29 -15 -3 -8 -17 -15 -31 -15 -15 0 -33 -7 -41 -15 -9 -8 -24 -15 -34 -15 -10 0 -20 -7 -24 -15 -3 -8 -12 -15 -20 -15 -14 0 -76 -29 -86 -41 -3 -3 -27 -19 -53 -35 -103 -62 -116 -70 -148 -96 -19 -15 -63 -50 -98 -78 -83 -65 -161 -139 -247 -236 -38 -43 -75 -85 -82 -93 -31 -32 -120 -159 -126 -179 -4 -12 -12 -22 -17 -22 -5 0 -9 -8 -9 -18 0 -10 -5 -23 -11 -29 -14 -14 -35 -50 -50 -85 -6 -16 -15 -28 -20 -28 -5 0 -9 -9 -9 -19 0 -11 -7 -26 -15 -35 -8 -8 -18 -29 -21 -45 -4 -17 -10 -31 -15 -31 -5 0 -9 -9 -9 -19 0 -11 -7 -26 -15 -35 -8 -8 -15 -25 -15 -38 0 -13 -7 -33 -15 -44 -8 -10 -15 -28 -15 -40 0 -11 -7 -29 -15 -40 -8 -10 -15 -36 -15 -56 0 -20 -7 -43 -15 -52 -8 -8 -15 -32 -15 -53 0 -22 -7 -48 -15 -59 -8 -10 -15 -34 -15 -52 0 -18 -7 -49 -15 -69 -8 -19 -15 -66 -15 -103 0 -48 -4 -71 -15 -80 -10 -8 -15 -31 -15 -70 0 -32 -7 -77 -15 -100 -8 -23 -15 -72 -16 -109 0 -36 -5 -93 -10 -126 -15 -98 -39 -621 -50 -1075 -14 -596 -2 -3829 14 -3849 8 -10 14 -95 17 -274 4 -211 8 -261 19 -265 12 -4 13 36 9 255 -3 143 -9 266 -14 274 -12 18 -11 -172 -12 2044 -1 1630 1 1981 13 2140 8 105 15 295 15 423 0 157 4 240 12 255 6 12 13 76 15 142 3 73 10 132 19 152 8 17 14 63 14 105 1 48 6 80 15 92 9 11 15 42 15 70 1 28 7 62 15 76 8 14 14 46 15 71 0 29 6 51 15 59 9 8 15 30 15 60 0 30 6 52 15 60 8 7 15 29 15 50 0 21 7 43 15 50 8 7 15 24 15 39 0 14 7 35 15 45 8 11 15 30 15 42 0 12 7 27 15 34 8 7 15 23 15 35 0 12 7 28 15 35 8 7 15 20 15 30 0 10 7 23 15 30 8 7 15 20 15 30 0 10 7 23 15 30 8 7 15 20 15 30 0 10 7 20 15 24 8 3 15 12 15 21 0 8 20 44 45 81 25 36 45 68 45 70 0 6 75 104 110 144 12 14 45 52 73 85 29 32 69 75 90 95 22 19 53 49 70 65 36 35 112 95 120 95 3 0 21 14 39 30 18 17 36 30 40 30 4 0 35 19 70 43 35 24 70 46 78 50 8 4 29 16 45 27 17 10 50 29 75 41 25 12 52 25 60 30 8 5 22 12 30 15 26 10 84 36 113 50 16 8 36 14 46 14 9 0 26 7 37 15 10 8 31 15 45 15 15 0 32 7 39 15 7 8 27 15 44 15 17 1 42 7 56 15 14 8 39 15 55 15 17 0 41 7 55 15 14 8 45 15 70 15 25 0 54 7 64 15 11 8 40 15 65 15 25 0 59 7 75 15 16 9 56 15 95 15 38 1 76 7 91 15 16 9 55 14 108 15 46 0 113 6 150 14 40 9 164 17 307 21 132 4 258 9 280 12 85 12 1413 19 2842 15 1300 -2 1496 -1 1521 12 22 11 78 15 239 18 116 2 215 7 219 11 5 4 2 12 -6 18 -18 12 -366 2 -460 -14 -89 -14 -4343 -21 -4384 -7 -16 5 -85 13 -155 16 -142 7 -173 16 -126 34 36 14 321 6 340 -10 21 -17 164 -18 1970 -18 968 0 1796 0 1840 -1 44 0 114 2 155 5 81 7 73 16 -25 29 -43 6 -47 8 -30 18 12 8 64 12 134 11 107 -1 114 -2 131 -25 17 -22 21 -23 52 -11 86 31 837 -7 879 -44 11 -10 35 -13 76 -12 42 2 65 -2 78 -12 12 -10 39 -15 77 -15 45 0 62 -4 69 -17 7 -13 18 -15 44 -11 23 4 43 0 59 -11 14 -9 41 -16 60 -16 19 0 41 -6 48 -13 7 -8 31 -17 53 -20 22 -4 41 -11 43 -17 2 -5 18 -10 36 -10 18 0 41 -7 52 -15 10 -8 31 -15 45 -15 15 0 32 -6 38 -14 7 -8 27 -18 44 -22 18 -3 37 -10 42 -14 6 -4 22 -10 38 -14 15 -3 27 -11 27 -16 0 -6 11 -10 24 -10 13 0 29 -7 36 -15 7 -8 21 -15 31 -15 10 0 20 -4 24 -9 3 -6 29 -22 58 -36 57 -29 71 -37 134 -78 24 -15 47 -27 53 -27 5 0 10 -4 10 -9 0 -5 20 -21 45 -35 25 -15 45 -30 45 -34 0 -5 21 -21 48 -37 52 -33 372 -347 372 -367 1 -17 35 -58 49 -58 6 0 11 -9 11 -20 0 -11 5 -20 10 -20 6 0 15 -10 20 -22 14 -33 31 -58 62 -93 16 -16 28 -38 28 -48 0 -10 7 -20 15 -23 8 -4 15 -16 15 -29 0 -13 7 -25 15 -29 8 -3 15 -13 15 -23 0 -10 7 -27 15 -37 8 -11 15 -27 15 -37 0 -9 7 -22 15 -29 8 -7 15 -19 15 -27 0 -8 7 -21 15 -29 8 -9 15 -26 15 -38 0 -13 7 -29 15 -36 8 -7 15 -21 15 -32 0 -11 7 -26 15 -34 8 -9 15 -28 15 -43 0 -16 7 -34 15 -41 9 -7 15 -29 15 -54 0 -23 7 -51 15 -62 8 -10 15 -31 15 -45 0 -14 7 -34 15 -45 8 -10 15 -35 15 -54 0 -19 9 -80 19 -135 11 -55 24 -133 29 -174 6 -40 16 -79 22 -85 10 -8 11 0 5 39 -8 61 -14 110 -21 195 -3 36 -11 68 -19 72 -7 5 -12 30 -13 67 -1 53 -17 125 -43 189 -5 13 -9 31 -9 40 0 10 -9 34 -20 55 -11 21 -18 43 -14 49 4 6 -1 17 -11 24 -10 8 -19 28 -20 48 -2 37 -91 226 -106 226 -5 0 -9 13 -9 28 0 15 -11 43 -24 61 -14 19 -28 46 -31 62 -4 16 -11 29 -16 29 -5 0 -14 10 -19 23 -14 32 -30 56 -72 108 -21 26 -38 52 -38 59 0 26 -87 128 -223 263 -76 75 -144 137 -152 137 -7 0 -15 7 -18 15 -4 8 -31 28 -61 46 -31 17 -66 43 -78 58 -30 35 -198 137 -323 197 -55 26 -108 51 -117 55 -10 5 -27 9 -39 9 -11 0 -32 9 -46 20 -14 11 -33 20 -42 20 -10 0 -21 4 -26 8 -11 9 -104 46 -155 61 -19 5 -59 17 -88 26 -29 9 -57 13 -62 10 -4 -3 -24 4 -43 15 -19 12 -39 20 -43 18 -9 -2 -42 5 -199 38 -114 24 -188 36 -227 35 -27 0 -38 4 -38 14 0 11 -13 15 -52 16 -231 2 -326 6 -338 15 -18 11 -426 28 -590 24 -216 -5 -335 -3 -401 5 -46 5 -78 4 -104 -5 -51 -17 -355 -17 -511 0 -95 11 -133 11 -181 1 -48 -9 -80 -9 -164 3 -95 13 -559 21 -599 10z m610 -74 c18 -10 20 -14 9 -21 -17 -11 -845 -10 -874 1 -19 8 -19 8 2 17 37 14 837 17 863 3z m377 -1 c22 -8 24 -12 13 -19 -17 -11 -219 -14 -244 -4 -21 8 -20 21 2 27 35 9 202 7 229 -4z m620 0 c26 -10 27 -12 8 -19 -24 -10 -150 -12 -182 -4 -13 4 -23 10 -23 14 0 20 153 26 197 9z m-3217 -10 c0 -5 -42 -8 -92 -7 -78 1 -85 2 -43 8 77 9 135 9 135 -1z m65 1 c3 -5 -3 -10 -14 -10 -12 0 -21 5 -21 10 0 6 6 10 14 10 8 0 18 -4 21 -10z m90 0 c4 -6 -9 -10 -32 -9 -30 0 -34 2 -18 9 27 12 43 12 50 0z m180 0 c4 -6 -25 -10 -80 -10 -55 0 -84 4 -80 10 3 6 39 10 80 10 41 0 77 -4 80 -10z m134 -6 c2 -2 -17 -4 -43 -4 -30 0 -45 4 -41 10 6 9 72 4 84 -6z m116 6 c4 -6 -7 -10 -25 -10 -18 0 -29 4 -25 10 3 6 15 10 25 10 10 0 22 -4 25 -10z m2820 0 c14 -6 1 -9 -43 -9 -40 -1 -61 3 -57 9 7 12 72 12 100 0z m-537 -7 c-16 -2 -40 -2 -55 0 -16 2 -3 4 27 4 30 0 43 -2 28 -4z m-4294 -82 c7 -10 -27 -21 -66 -21 -27 0 -43 12 -31 24 10 9 91 7 97 -3z m-160 -30 c7 -10 -27 -21 -66 -21 -18 0 -28 5 -28 15 0 11 12 15 44 15 25 0 47 -4 50 -9z m-140 -30 c3 -5 -1 -12 -10 -15 -21 -8 -65 4 -58 15 7 12 61 12 68 0z m-130 -17 c34 -13 1 -40 -35 -29 -24 8 -24 22 -1 28 9 3 18 5 19 6 1 0 8 -2 17 -5z m-84 -43 c0 -6 -4 -12 -9 -15 -13 -9 -71 5 -65 15 7 12 74 11 74 0z m-415 -151 c3 -5 -1 -10 -9 -10 -9 0 -19 0 -23 -1 -4 0 -9 4 -11 10 -5 14 35 14 43 1z m-55 -30 c0 -5 -11 -12 -24 -16 -14 -3 -27 -12 -30 -20 -3 -8 -16 -14 -30 -14 -13 0 -26 -7 -30 -15 -3 -8 -12 -15 -21 -15 -9 0 -21 -5 -28 -10 -49 -42 -62 -50 -79 -50 -31 0 -16 21 35 47 26 14 47 29 47 34 0 5 8 9 19 9 10 0 24 7 31 15 7 8 21 15 32 15 10 0 21 7 24 15 7 16 54 21 54 5z m-300 -175 c0 -9 -40 -45 -50 -45 -15 0 -12 11 7 32 15 16 43 25 43 13z m-118 -102 c-7 -3 -19 -12 -28 -20 -8 -8 -18 -12 -22 -8 -4 4 -1 10 6 12 6 3 12 11 12 18 0 17 22 25 35 13 7 -7 6 -12 -3 -15z m-148 -120 c-34 -41 -54 -52 -54 -30 0 15 71 79 79 71 3 -2 -9 -21 -25 -41z m-164 -172 c0 -12 -52 -71 -62 -71 -5 0 -8 7 -8 15 0 8 4 15 8 15 5 0 14 11 20 25 11 24 42 35 42 16z m-107 -141 c-3 -11 -9 -20 -14 -20 -5 0 -9 9 -9 20 0 11 6 20 14 20 9 0 12 -7 9 -20z m-53 -69 c0 -21 -13 -41 -27 -41 -10 0 -13 6 -9 16 3 9 6 20 6 25 0 5 7 9 15 9 8 0 15 -4 15 -9z m-130 -233 c-1 -21 -31 -68 -44 -68 -3 0 -6 9 -6 20 0 11 4 20 9 20 5 0 12 11 15 25 8 31 26 33 26 3z m-60 -148 c0 -11 -4 -20 -10 -20 -5 0 -10 9 -10 20 0 11 5 20 10 20 6 0 10 -9 10 -20z m-34 -88 c-14 -13 -23 15 -13 38 l11 25 4 -28 c2 -16 1 -31 -2 -35z m-26 -52 c0 -16 -4 -30 -10 -30 -11 0 -14 43 -3 53 11 12 13 8 13 -23z m-27 -72 c5 -18 -3 -48 -14 -48 -5 0 -9 14 -9 30 0 30 15 41 23 18z m-27 -122 c-3 -14 -10 -26 -15 -26 -14 0 -21 43 -9 57 16 20 32 0 24 -31z m-36 -107 c0 -24 -4 -38 -10 -34 -5 3 -10 22 -10 41 0 19 5 34 10 34 6 0 10 -18 10 -41z m-28 -109 c-2 -16 -8 -30 -13 -30 -10 0 -12 53 -3 63 13 13 21 -3 16 -33z m-26 -132 c-3 -13 -6 -29 -6 -36 0 -7 -4 -10 -10 -7 -11 7 -14 48 -3 58 14 15 25 6 19 -15z m-6 -143 c0 -8 -7 -15 -15 -15 -8 0 -15 -5 -15 -12 0 -6 -3 -9 -6 -6 -8 8 14 48 26 48 6 0 10 -7 10 -15z m-26 -157 c8 -30 8 -83 0 -91 -16 -15 -34 8 -34 43 0 65 21 94 34 48z m-64 -4734 c0 -24 -4 -44 -10 -44 -5 0 -10 23 -10 51 0 31 4 48 10 44 6 -3 10 -26 10 -51z m0 -139 c0 -37 -4 -65 -10 -65 -6 0 -10 28 -10 65 0 37 4 65 10 65 6 0 10 -28 10 -65z"/> <path d="M9560 12223 c-19 -3 -39 -9 -44 -14 -6 -5 -98 -9 -205 -10 -214 -1 -291 -10 -182 -22 35 -4 132 -7 215 -7 106 0 163 -5 191 -15 56 -20 214 -20 221 0 4 10 21 15 53 15 95 0 118 23 35 36 -38 5 -51 3 -75 -15 -26 -19 -40 -21 -129 -19 -108 3 -139 21 -43 25 81 4 125 12 118 24 -6 9 -85 10 -155 2z"/> <path d="M9937 12169 c-9 -6 -15 -14 -12 -20 7 -11 72 -11 100 0 17 7 14 10 -20 20 -48 13 -45 13 -68 0z"/> <path d="M9775 12130 c-3 -5 5 -12 18 -15 37 -10 120 -1 125 13 5 15 -133 18 -143 2z"/> <path d="M10063 12128 c2 -8 23 -13 53 -13 37 0 49 -4 49 -15 0 -10 -14 -17 -45 -20 -56 -6 -59 -24 -4 -28 27 -2 45 2 54 13 7 8 27 15 44 15 33 0 64 14 50 23 -5 2 -28 8 -51 12 -24 4 -45 11 -49 16 -9 15 -106 11 -101 -3z"/> <path d="M9945 12100 c-3 -6 0 -13 8 -16 25 -9 100 0 105 14 5 15 -104 17 -113 2z"/> <path d="M10283 12066 c-4 -8 -26 -16 -48 -18 -49 -4 -53 -22 -5 -26 22 -2 38 2 45 11 6 9 29 17 51 19 49 4 51 22 2 26 -24 2 -39 -2 -45 -12z"/> <path d="M10380 12036 c0 -12 -10 -16 -39 -16 -42 0 -62 -14 -35 -24 26 -10 51 -7 64 8 6 8 28 16 48 18 48 4 48 22 0 26 -29 2 -38 0 -38 -12z"/> <path d="M10475 12011 c-7 -13 17 -24 40 -19 9 1 16 8 16 13 0 14 -48 19 -56 6z"/> <path d="M10397 11984 c-12 -12 4 -24 34 -24 19 0 29 5 29 15 0 15 -50 22 -63 9z"/> <path d="M10550 11975 c0 -16 17 -19 44 -9 22 9 10 24 -20 24 -15 0 -24 -6 -24 -15z"/> <path d="M10482 11948 c5 -15 48 -18 48 -3 0 6 -11 11 -26 13 -18 3 -25 0 -22 -10z"/> <path d="M10620 11945 c0 -11 -11 -15 -36 -15 -45 0 -42 -24 4 -28 24 -2 32 1 32 12 0 10 9 16 25 16 16 0 25 6 25 15 0 9 -9 15 -25 15 -16 0 -25 -6 -25 -15z"/> <path d="M10697 11924 c-12 -12 3 -22 23 -17 11 3 17 9 14 14 -6 10 -28 12 -37 3z"/> <path d="M10632 11888 c7 -20 48 -23 48 -4 0 11 -9 16 -26 16 -16 0 -24 -5 -22 -12z"/> <path d="M10760 11885 c0 -10 7 -15 18 -13 21 4 19 22 -2 26 -10 2 -16 -3 -16 -13z"/> <path d="M10697 11864 c-11 -12 3 -24 28 -24 12 0 25 -7 29 -15 3 -8 15 -15 26 -15 11 0 20 7 20 15 0 9 -9 15 -25 15 -16 0 -25 6 -25 15 0 15 -40 21 -53 9z"/> <path d="M10817 11864 c-9 -10 2 -24 19 -24 8 0 14 7 14 15 0 15 -21 21 -33 9z"/> <path d="M10866 11825 c-8 -8 -21 -15 -30 -15 -26 0 -28 -19 -2 -26 13 -3 27 -12 30 -20 7 -19 46 -18 46 1 0 9 -9 15 -25 15 -16 0 -25 6 -25 15 0 8 9 15 19 15 25 0 36 16 16 24 -8 3 -21 -1 -29 -9z"/> <path d="M10920 11795 c0 -8 9 -15 20 -15 24 0 27 15 4 24 -22 9 -24 8 -24 -9z"/> <path d="M10970 11765 c0 -8 7 -15 15 -15 8 0 15 7 15 15 0 8 -7 15 -15 15 -8 0 -15 -7 -15 -15z"/> <path d="M10920 11740 c0 -6 11 -15 25 -20 14 -5 25 -14 25 -19 0 -5 8 -12 18 -15 34 -13 72 -37 72 -47 0 -5 7 -9 15 -9 8 0 15 -5 15 -10 0 -6 7 -13 15 -17 17 -6 55 -37 116 -93 21 -19 52 -48 69 -64 50 -47 48 -20 -3 29 -26 25 -47 49 -47 55 0 5 -7 10 -15 10 -8 0 -15 5 -15 10 0 6 -8 14 -17 17 -21 8 -37 21 -61 46 -9 9 -22 17 -29 17 -7 0 -13 7 -13 15 0 8 -9 15 -20 15 -11 0 -20 7 -20 15 0 8 -9 15 -19 15 -10 0 -21 7 -25 15 -3 8 -15 15 -26 15 -11 0 -20 7 -20 15 0 8 -9 15 -20 15 -11 0 -20 -5 -20 -10z"/> <path d="M11015 11740 c-8 -12 20 -24 35 -15 6 3 8 11 5 16 -8 12 -32 12 -40 -1z"/> <path d="M11062 11708 c6 -18 28 -21 28 -4 0 9 -7 16 -16 16 -9 0 -14 -5 -12 -12z"/> <path d="M11150 11645 c0 -9 5 -15 11 -13 6 2 11 8 11 13 0 5 -5 11 -11 13 -6 2 -11 -4 -11 -13z"/> <path d="M11182 11621 c4 -13 18 -16 19 -4 0 4 -5 9 -11 12 -7 2 -11 -2 -8 -8z"/> <path d="M11281 11533 c1 -11 91 -85 96 -79 3 2 -14 23 -37 45 -40 39 -61 50 -59 34z"/> <path d="M11390 11432 c0 -4 15 -21 34 -38 18 -17 36 -37 39 -45 4 -11 6 -11 6 1 1 8 -15 32 -34 53 -34 37 -45 44 -45 29z"/> <path d="M11335 11410 c-5 -7 10 -29 39 -57 25 -26 46 -51 46 -57 0 -6 13 -23 28 -36 15 -14 31 -33 35 -42 3 -10 11 -18 17 -18 20 0 10 26 -20 50 -16 14 -29 30 -30 36 0 6 -15 27 -32 47 -18 19 -43 48 -54 63 -15 19 -23 23 -29 14z"/> <path d="M11520 11291 c0 -17 37 -54 43 -44 3 5 -5 19 -19 32 -13 13 -24 18 -24 12z"/> <path d="M11610 11171 c0 -12 4 -21 9 -21 5 0 12 -11 15 -25 4 -14 11 -25 16 -25 6 0 10 -6 10 -13 0 -8 9 -24 20 -37 11 -13 20 -29 20 -37 0 -7 4 -13 9 -13 5 0 11 -10 13 -22 4 -28 28 -36 28 -9 0 11 -6 24 -12 28 -16 10 -35 39 -49 76 -6 15 -15 27 -19 27 -4 0 -11 11 -14 25 -4 14 -11 25 -16 25 -6 0 -10 6 -10 14 0 8 -4 18 -10 21 -5 3 -10 -3 -10 -14z"/> <path d="M11510 11173 c0 -14 50 -56 58 -49 4 4 -1 13 -11 20 -9 7 -17 18 -17 25 0 6 -7 11 -15 11 -8 0 -15 -3 -15 -7z"/> <path d="M11570 11090 c0 -10 6 -23 13 -27 8 -4 16 -16 20 -25 3 -10 11 -18 17 -18 15 0 12 30 -4 36 -8 3 -17 16 -20 30 -8 29 -26 32 -26 4z"/> <path d="M11630 10986 c0 -13 7 -29 15 -36 8 -7 15 -19 15 -26 0 -8 7 -14 15 -14 19 0 20 29 1 36 -8 3 -16 18 -20 35 -7 35 -26 39 -26 5z"/> <path d="M11750 10931 c0 -21 29 -81 39 -81 17 0 22 18 7 27 -8 4 -16 19 -18 32 -3 24 -28 43 -28 22z"/> <path d="M11695 10877 c-4 -10 -3 -23 4 -30 16 -16 26 0 14 25 -10 21 -11 22 -18 5z"/> <path d="M11720 10812 c0 -11 7 -25 15 -32 8 -7 15 -23 15 -35 0 -12 7 -28 15 -35 8 -7 15 -23 15 -36 0 -12 7 -29 15 -38 8 -8 15 -28 15 -44 0 -16 7 -35 15 -42 8 -7 15 -27 15 -44 0 -18 7 -41 15 -52 8 -10 15 -31 15 -46 0 -33 9 -58 21 -58 15 0 10 75 -6 96 -8 10 -15 31 -15 45 0 14 -7 34 -15 45 -8 10 -15 31 -15 46 0 15 -7 33 -15 42 -8 8 -15 24 -15 35 0 11 -7 26 -15 35 -8 8 -15 26 -15 39 0 14 -6 30 -14 37 -8 6 -16 21 -18 32 -4 28 -28 36 -28 10z"/> <path d="M11810 10808 c0 -7 4 -19 9 -27 11 -17 25 3 17 24 -7 18 -26 20 -26 3z"/> <path d="M11845 10750 c-9 -15 3 -60 15 -60 6 0 10 -15 10 -34 0 -18 7 -39 15 -46 13 -11 15 -7 15 23 0 20 -7 42 -15 51 -8 8 -15 26 -15 40 0 27 -15 42 -25 26z"/> <path d="M11907 10593 c-12 -12 -7 -59 8 -79 8 -10 15 -30 15 -44 0 -36 11 -70 21 -70 15 0 10 75 -6 96 -8 10 -15 33 -15 49 0 33 -13 59 -23 48z"/> <path d="M11960 10358 c0 -18 7 -46 15 -62 8 -15 15 -50 15 -77 0 -26 6 -68 14 -91 8 -24 17 -85 20 -135 3 -51 11 -103 18 -115 9 -17 12 -74 10 -210 -3 -181 5 -231 25 -170 16 45 4 379 -14 391 -6 3 -13 57 -16 120 -4 63 -11 119 -17 125 -5 5 -10 38 -10 73 0 43 -4 64 -14 70 -9 5 -16 28 -18 57 -3 57 -28 78 -28 24z"/> <path d="M11903 10275 c4 -38 11 -73 17 -79 5 -5 10 -31 10 -56 0 -27 7 -54 16 -66 14 -17 15 -12 10 69 -3 49 -10 94 -15 101 -5 6 -11 29 -13 50 -2 23 -9 41 -17 44 -12 4 -13 -7 -8 -63z"/> <path d="M11964 9969 c4 -46 7 -93 7 -104 0 -11 4 -33 9 -50 8 -25 16 -120 19 -222 1 -13 6 -23 12 -23 15 0 7 263 -9 282 -6 8 -12 54 -14 102 -2 66 -7 91 -17 94 -12 4 -13 -9 -7 -79z"/> <path d="M12000 9505 c0 -19 5 -35 10 -35 6 0 10 16 10 35 0 19 -4 35 -10 35 -5 0 -10 -16 -10 -35z"/> <path d="M12080 9450 c0 -8 0 -145 0 -305 0 -240 3 -292 15 -305 18 -20 10 -30 -21 -30 -13 0 -26 -4 -29 -10 -3 -5 3 -10 14 -10 12 0 21 -6 22 -12 3 -40 -4 -105 -13 -115 -6 -8 -6 -19 1 -32 17 -31 13 -70 -9 -98 -24 -31 -26 -51 -4 -32 15 12 16 10 10 -19 -4 -17 -4 -32 1 -32 12 0 14 -328 2 -336 -5 -3 -3 -14 3 -24 10 -15 10 -22 1 -31 -9 -9 -9 -16 0 -29 8 -14 7 -22 -4 -36 -11 -14 -13 -54 -11 -212 2 -116 7 -201 13 -208 7 -9 7 -19 0 -31 -11 -21 -11 -352 0 -359 4 -2 2 -18 -4 -34 -9 -24 -9 -35 2 -51 9 -15 10 -24 2 -32 -15 -15 -14 -70 1 -85 8 -8 8 -15 1 -24 -8 -10 -18 -595 -14 -748 1 -35 -3 -565 -9 -1095 -4 -352 -11 -589 -18 -620 -6 -27 -11 -108 -11 -179 -1 -72 -5 -155 -11 -185 -5 -31 -14 -103 -20 -161 -22 -211 -30 -274 -36 -290 -3 -8 -12 -51 -19 -95 -25 -148 -36 -197 -45 -215 -5 -10 -14 -42 -19 -71 -9 -53 -56 -192 -101 -299 -27 -67 -113 -243 -121 -250 -3 -3 -16 -25 -30 -50 -44 -82 -255 -354 -330 -425 -133 -126 -325 -273 -434 -331 -154 -82 -293 -146 -380 -174 -38 -13 -74 -27 -80 -32 -5 -4 -20 -8 -33 -8 -13 0 -36 -6 -50 -14 -50 -27 -307 -86 -455 -106 -43 -5 -86 -14 -95 -19 -9 -4 -78 -11 -152 -15 -74 -4 -175 -11 -225 -17 -298 -31 -717 -45 -1680 -55 -685 -8 -1603 -7 -1820 0 -77 3 -383 6 -679 6 -314 1 -547 5 -557 11 -10 5 -66 11 -126 14 -59 3 -175 9 -258 13 -82 5 -175 9 -205 9 -30 0 -98 8 -150 17 -52 9 -140 23 -195 31 -55 7 -118 18 -140 24 -58 15 -115 14 -115 -3 0 -14 42 -26 95 -26 19 0 35 -4 37 -8 2 -5 48 -15 102 -24 68 -11 102 -21 108 -32 5 -9 16 -16 24 -16 8 0 25 -6 37 -14 35 -21 183 -36 427 -41 124 -3 257 -10 295 -15 170 -24 2503 -37 3610 -20 802 13 972 18 1065 33 47 8 119 15 160 16 248 3 514 43 845 127 17 4 40 8 53 9 13 0 34 14 47 30 22 29 23 29 43 12 23 -21 67 -15 58 9 -7 18 14 30 24 14 5 -7 15 -10 25 -6 14 5 15 9 5 21 -10 12 -9 15 8 15 12 0 23 -4 26 -9 7 -10 67 18 109 51 18 15 30 19 37 12 7 -7 25 4 55 33 49 47 81 57 70 23 -8 -24 -5 -24 40 -6 44 19 45 36 3 36 l-33 0 30 25 c24 20 37 24 68 20 28 -4 39 -1 43 10 4 8 16 15 27 15 20 0 20 1 3 13 -18 13 -17 15 13 36 18 13 35 20 39 16 4 -4 1 -10 -5 -12 -17 -6 -17 -33 0 -33 15 0 55 41 81 83 14 22 23 27 41 23 18 -5 35 5 81 49 31 30 61 55 66 55 4 0 38 32 76 71 142 149 182 199 182 231 0 9 9 19 19 23 10 3 48 52 83 108 68 107 188 343 188 368 0 16 42 136 59 167 6 12 11 34 11 51 0 16 4 32 9 35 4 3 14 34 20 68 7 35 16 78 21 97 5 19 7 38 4 42 -3 5 4 48 16 96 22 93 35 168 50 298 5 44 14 118 20 165 5 47 10 130 11 185 0 90 11 258 25 405 3 30 7 260 9 510 2 250 7 538 12 640 4 102 7 282 5 400 -3 195 -3 255 -1 315 0 22 1 269 1 1050 0 1000 -5 1620 -14 1631 -5 7 -12 85 -17 174 -5 94 -13 166 -20 173 -8 8 -11 7 -11 -3z m-270 -6514 c0 -8 -4 -18 -10 -21 -5 -3 -10 3 -10 14 0 12 5 21 10 21 6 0 10 -6 10 -14z m-60 -145 c0 -20 -17 -37 -27 -28 -7 8 7 47 18 47 5 0 9 -9 9 -19z m-214 -348 c-11 -11 -19 6 -11 24 8 17 8 17 12 0 3 -10 2 -21 -1 -24z"/> <path d="M12004 9418 c17 -58 26 -155 26 -295 0 -83 4 -154 9 -157 13 -9 19 60 11 136 -7 65 -6 288 1 318 3 10 -5 16 -25 18 -26 3 -28 1 -22 -20z"/> <path d="M12030 8885 c0 -8 5 -15 10 -15 6 0 10 7 10 15 0 8 -4 15 -10 15 -5 0 -10 -7 -10 -15z"/> <path d="M7390 8864 c-14 -2 -62 -9 -108 -16 -45 -6 -87 -17 -93 -25 -6 -7 -25 -13 -41 -13 -16 0 -31 -6 -34 -15 -7 -18 -41 -20 -47 -2 -4 9 -8 9 -23 -1 -11 -7 -40 -22 -66 -33 -31 -14 -45 -26 -41 -35 6 -17 -13 -19 -21 -1 -3 8 -8 7 -16 -5 -6 -10 -22 -18 -36 -18 -14 0 -57 -21 -97 -47 -40 -27 -80 -51 -89 -55 -10 -4 -18 -13 -18 -20 0 -7 -22 -36 -50 -63 -27 -28 -50 -56 -50 -62 0 -7 -11 -13 -25 -13 -29 0 -75 -43 -75 -70 0 -10 -22 -46 -50 -80 -27 -34 -50 -70 -50 -79 0 -10 -7 -26 -15 -37 -8 -10 -15 -30 -15 -43 0 -13 -13 -50 -30 -83 -16 -32 -30 -67 -30 -77 0 -10 -6 -24 -14 -31 -8 -6 -16 -23 -18 -38 -2 -16 -10 -28 -20 -30 -15 -3 -18 4 -18 47 0 28 4 51 9 51 5 0 11 17 13 38 5 37 -14 92 -32 92 -5 0 -6 16 -3 35 3 22 1 41 -8 51 -11 13 -10 17 4 25 12 7 15 18 11 38 -3 16 -1 37 4 48 12 22 -2 53 -23 53 -19 0 -19 27 -1 61 20 39 27 76 20 105 l-7 27 -12 -23 c-15 -29 -24 -9 -17 43 2 23 10 37 18 37 21 0 17 16 -7 32 -13 8 -23 26 -24 46 -4 45 -32 75 -63 67 -19 -5 -23 -3 -19 9 8 21 -20 43 -35 28 -17 -17 -33 -15 -18 3 11 13 8 15 -19 15 -25 0 -31 4 -29 17 5 26 -32 30 -39 4 -7 -28 -20 -27 -19 1 1 28 -29 36 -36 10 -7 -23 -52 -34 -114 -25 -38 5 -48 2 -69 -17 -13 -12 -21 -28 -18 -36 3 -8 -1 -14 -11 -14 -9 0 -16 -4 -16 -9 0 -5 -10 -11 -21 -14 -19 -5 -21 -11 -16 -42 5 -31 4 -35 -8 -25 -17 14 -17 13 -15 -59 1 -36 -2 -51 -9 -46 -7 3 -10 14 -9 22 2 9 -2 18 -8 20 -13 4 -12 -151 1 -199 5 -18 3 -28 -4 -28 -6 0 -11 11 -11 25 0 16 -6 25 -16 25 -13 0 -15 -6 -9 -27 3 -16 11 -64 16 -108 6 -44 16 -86 22 -94 9 -11 7 -17 -10 -28 -18 -12 -20 -18 -10 -34 9 -14 9 -21 -1 -31 -13 -13 -17 -58 -4 -58 9 0 32 -59 32 -83 0 -9 -7 -20 -16 -25 -12 -7 -15 -17 -11 -33 4 -15 0 -30 -10 -41 -11 -12 -13 -22 -6 -30 6 -7 9 -46 7 -85 -2 -56 0 -73 11 -73 13 0 13 -11 -1 -127 -3 -24 -10 -46 -16 -49 -7 -4 -2 -14 13 -24 20 -16 21 -20 9 -34 -10 -13 -10 -20 -2 -28 16 -16 15 -28 -3 -28 -20 0 -19 -17 3 -29 14 -8 15 -13 5 -29 -18 -31 -27 -92 -13 -92 8 0 10 -12 5 -40 -5 -27 -3 -46 6 -56 10 -13 9 -16 -9 -21 -22 -5 -29 -23 -14 -37 7 -8 9 -22 12 -116 1 -30 7 -61 13 -68 8 -10 7 -16 -3 -22 -8 -5 -10 -14 -5 -26 5 -11 7 -23 6 -29 -6 -24 11 -75 25 -75 12 0 13 -8 8 -35 -5 -31 -2 -39 35 -77 22 -24 41 -49 41 -55 0 -7 9 -13 19 -13 11 0 23 -5 26 -11 4 -6 22 -8 44 -4 30 5 41 2 56 -14 10 -12 28 -21 40 -21 13 0 28 -6 34 -14 6 -8 21 -16 32 -19 12 -3 18 -3 15 0 -11 11 27 43 51 43 27 0 31 16 6 23 -10 3 -4 5 14 6 24 1 31 5 27 16 -9 22 14 18 28 -5 20 -31 38 -24 38 15 0 27 7 39 31 57 26 20 30 27 24 55 -5 29 -3 33 15 33 15 0 20 6 20 29 0 16 6 31 13 34 19 7 21 264 2 293 -16 24 -11 34 17 34 10 0 18 7 18 15 0 8 -4 15 -10 15 -5 0 -10 13 -10 28 0 36 -9 45 -27 30 -12 -10 -14 -7 -11 18 2 23 9 30 32 34 36 6 44 25 16 40 -15 8 -18 15 -11 28 5 10 6 24 0 33 -5 10 -5 29 1 48 5 18 6 54 3 82 -5 41 -3 49 10 49 23 0 31 -39 24 -117 -5 -62 -4 -64 17 -60 16 4 27 -4 49 -38 15 -23 27 -52 27 -63 0 -12 4 -23 10 -27 5 -3 7 -12 4 -20 -3 -8 8 -37 25 -65 17 -28 31 -56 31 -63 0 -7 18 -31 41 -52 30 -30 39 -46 36 -63 -4 -21 -1 -23 20 -17 20 5 26 1 34 -24 6 -18 20 -32 34 -35 17 -4 25 -14 27 -34 2 -19 9 -28 25 -30 11 -2 32 -19 45 -38 12 -18 26 -34 31 -34 4 0 27 -18 51 -40 27 -25 49 -38 59 -34 10 3 24 -4 38 -20 12 -14 38 -29 58 -32 48 -9 102 -32 126 -54 11 -9 32 -20 46 -23 14 -4 31 -17 37 -29 l11 -23 7 23 c6 22 28 30 38 13 4 -5 24 -12 46 -16 22 -4 42 -11 45 -16 3 -4 18 -6 34 -3 15 3 44 1 64 -4 29 -8 37 -7 41 5 5 12 18 13 68 8 83 -9 128 -7 144 6 6 5 24 7 38 3 31 -7 110 26 120 52 6 15 9 15 29 -5 13 -11 29 -21 35 -21 21 0 110 51 116 66 8 21 23 17 31 -8 7 -22 7 -22 12 -3 7 29 32 45 70 45 20 0 33 5 33 13 1 6 21 28 45 47 25 19 43 41 40 48 -2 6 2 12 10 12 8 0 15 5 15 10 0 6 5 10 12 10 16 0 78 69 90 100 l10 25 18 -35 c13 -26 16 -48 12 -92 -3 -42 -1 -58 8 -58 8 0 10 -8 6 -25 -5 -20 -2 -26 20 -31 21 -5 24 -11 20 -30 -5 -17 -2 -26 8 -30 9 -3 18 -14 21 -24 4 -12 12 -16 24 -13 13 3 23 -3 31 -17 7 -13 17 -19 27 -16 9 4 17 -1 20 -13 7 -27 85 -48 119 -32 32 14 59 14 84 -1 16 -10 30 -9 76 7 53 18 56 18 66 1 9 -16 11 -16 27 -1 15 12 20 13 29 3 13 -17 220 -15 251 1 17 9 26 9 43 -4 26 -18 59 -20 75 -4 9 9 26 9 70 0 68 -13 178 -5 211 16 18 11 26 12 38 2 18 -15 184 -22 184 -8 0 6 19 9 47 7 43 -3 47 -1 53 22 6 22 11 25 43 22 36 -3 37 -2 31 23 -3 14 -2 25 2 24 21 -4 34 2 34 15 0 7 7 19 15 26 8 7 15 28 15 46 0 19 3 34 8 34 4 0 13 14 21 31 15 35 9 152 -9 174 -6 7 -9 23 -8 36 3 20 -1 24 -24 24 -23 -1 -28 4 -28 22 0 18 -7 25 -31 30 -19 4 -26 9 -19 13 16 10 4 30 -18 30 -9 0 -32 9 -50 20 -18 11 -46 20 -63 20 -17 0 -39 5 -50 11 -15 7 -24 7 -34 -1 -21 -17 -112 -3 -120 18 -6 14 -8 13 -16 -6 -7 -20 -14 -23 -38 -17 -16 3 -115 7 -222 9 -159 3 -195 6 -203 18 -8 14 -13 13 -42 -4 -30 -18 -35 -18 -62 -4 -25 13 -30 23 -35 62 -5 51 8 94 30 94 7 0 13 9 13 19 0 24 29 36 36 16 8 -20 24 -19 53 4 19 15 31 17 49 10 19 -7 29 -5 44 7 17 16 20 16 41 -4 28 -26 49 -28 82 -6 18 12 37 14 82 9 32 -4 66 -12 76 -17 23 -12 57 7 57 32 0 16 7 20 30 20 20 0 30 -5 30 -15 0 -26 21 -16 66 30 33 35 50 45 74 45 19 0 29 4 25 10 -4 6 -11 8 -16 5 -5 -4 -13 -4 -19 0 -15 9 9 51 37 64 24 11 25 13 8 25 -12 8 -16 19 -12 31 6 13 10 15 21 6 18 -15 30 1 21 30 -5 14 -1 25 12 34 17 13 16 15 -14 27 -38 14 -42 23 -13 31 24 6 26 30 5 51 -8 8 -18 28 -21 45 -4 16 -17 40 -30 52 -13 12 -24 30 -24 40 0 12 -13 19 -47 25 -44 8 -47 11 -48 39 0 24 -4 29 -20 27 -83 -14 -85 -14 -91 2 -7 19 -55 21 -86 5 -30 -16 -108 -2 -108 19 -1 15 -2 16 -13 1 -8 -10 -36 -18 -80 -22 -69 -6 -104 2 -140 32 -17 14 -20 14 -32 -2 -13 -18 -42 -22 -64 -8 -11 7 -10 13 4 34 10 16 13 31 8 39 -4 7 -8 34 -8 59 l0 46 36 -4 c24 -4 45 0 62 11 16 11 27 13 32 7 10 -17 75 -13 81 4 4 8 13 15 20 15 8 0 17 -7 20 -15 4 -8 15 -15 25 -15 11 0 22 7 25 15 8 20 20 19 44 -5 19 -19 50 -27 50 -14 0 4 -8 13 -17 20 -26 19 2 18 32 -2 19 -13 27 -13 44 -2 16 10 23 10 33 0 9 -9 16 -8 30 5 18 16 19 16 25 -5 5 -22 23 -29 37 -15 4 4 24 9 44 10 20 1 63 5 96 9 33 3 62 2 68 -4 14 -14 47 -3 59 19 11 22 35 25 42 7 3 -8 6 -6 6 5 1 9 9 17 19 17 10 0 27 6 37 14 15 11 17 17 7 28 -15 19 -3 32 15 16 18 -15 29 -2 14 16 -13 16 -4 43 23 65 10 8 13 24 10 49 -5 31 -3 35 8 22 7 -9 20 -15 28 -15 22 0 25 46 5 61 -12 9 -15 19 -10 31 10 21 7 54 -6 67 -5 6 -12 0 -18 -15 -8 -20 -10 -14 -10 32 -1 39 -5 59 -15 62 -8 3 -20 18 -28 34 -9 19 -20 27 -33 25 -16 -2 -17 -1 -6 7 12 8 13 12 2 25 -10 12 -17 13 -27 5 -16 -13 -34 -4 -34 17 0 12 -7 14 -32 8 -28 -6 -31 -5 -20 8 6 8 9 18 5 21 -12 12 -42 7 -51 -8 -7 -13 -10 -12 -20 10 -10 22 -14 24 -31 13 -15 -9 -23 -9 -34 1 -11 9 -17 9 -22 1 -4 -7 -24 -10 -46 -8 -21 2 -40 -1 -42 -6 -4 -12 -209 -15 -225 -3 -9 7 -16 7 -24 -1 -8 -8 -15 -8 -28 0 -14 9 -24 7 -48 -10 -28 -21 -31 -21 -63 -5 -19 9 -38 23 -42 30 -7 11 -15 9 -43 -12 -19 -14 -34 -21 -34 -15 0 19 -30 23 -50 5 -16 -15 -25 -15 -73 -5 -41 10 -59 10 -75 1 -17 -9 -27 -9 -44 1 -15 8 -72 12 -165 12 -119 0 -146 -3 -161 -17 -10 -9 -24 -17 -31 -17 -8 0 -11 -6 -7 -15 3 -8 1 -15 -4 -15 -13 0 -50 -32 -50 -43 0 -5 -20 -27 -45 -49 -44 -39 -61 -76 -30 -64 11 4 15 -2 15 -24 0 -27 -22 -60 -40 -60 -5 0 -13 -14 -18 -32 -8 -32 -32 -51 -32 -26 0 12 -74 102 -127 155 -11 12 -38 29 -60 38 -21 9 -49 23 -63 30 -114 64 -175 86 -220 79 -40 -7 -41 -6 -34 20 6 26 -8 37 -21 15 -4 -6 -19 -1 -39 15 -30 22 -37 23 -80 14 -35 -7 -51 -7 -62 3 -8 7 -36 13 -62 14 -26 0 -58 4 -72 7 -14 3 -36 4 -50 2z m46 -36 c-18 -10 -39 -2 -31 12 3 4 15 6 26 3 19 -5 19 -7 5 -15z m269 -17 c8 -14 -13 -24 -33 -16 -14 5 -14 7 -2 15 19 12 27 12 35 1z m-16 -77 c18 -8 46 -14 60 -14 15 0 36 -7 47 -15 10 -8 31 -15 45 -15 15 0 32 -7 39 -15 7 -8 20 -15 30 -15 10 0 23 -7 30 -15 7 -8 19 -15 26 -15 7 0 47 -23 89 -51 78 -53 155 -132 155 -160 0 -8 7 -24 15 -35 37 -49 3 -157 -69 -219 -77 -65 -153 -84 -226 -54 -28 11 -127 78 -175 117 -6 5 -23 12 -38 16 -15 3 -27 11 -27 16 0 6 -12 10 -27 10 -16 1 -39 7 -53 15 -36 21 -327 21 -354 0 -11 -8 -30 -15 -42 -15 -13 0 -25 -4 -29 -9 -3 -6 -31 -22 -63 -37 -39 -18 -84 -54 -144 -115 -49 -48 -88 -94 -88 -102 0 -8 -7 -20 -15 -27 -8 -7 -15 -20 -15 -30 0 -10 -7 -23 -15 -30 -8 -7 -15 -22 -15 -34 0 -11 -7 -30 -15 -40 -12 -16 -15 -55 -15 -181 0 -126 3 -165 15 -181 8 -10 15 -32 15 -47 0 -15 7 -30 15 -33 8 -4 15 -14 15 -24 0 -10 7 -23 15 -30 8 -7 15 -17 15 -22 0 -11 52 -81 85 -113 32 -33 102 -85 113 -85 5 0 15 -7 22 -15 7 -8 20 -15 30 -15 10 0 23 -7 30 -15 7 -8 24 -15 39 -15 15 0 36 -7 49 -15 31 -23 333 -22 365 0 12 8 33 15 48 15 15 0 32 7 39 15 7 8 20 15 30 15 10 0 23 7 30 15 7 8 17 15 22 15 6 0 27 12 47 28 66 50 97 62 155 62 38 0 69 -7 98 -22 54 -28 114 -90 121 -126 3 -15 9 -39 13 -55 3 -15 0 -55 -7 -88 -11 -49 -22 -69 -58 -106 -25 -25 -54 -49 -65 -54 -12 -5 -34 -18 -51 -29 -16 -11 -40 -24 -52 -29 -11 -5 -24 -15 -28 -20 -3 -6 -17 -11 -29 -11 -13 0 -29 -7 -36 -15 -7 -8 -25 -15 -40 -15 -15 0 -33 -7 -40 -15 -7 -8 -26 -15 -42 -15 -16 0 -41 -6 -56 -14 -72 -36 -504 -36 -557 0 -11 8 -31 14 -45 14 -14 0 -34 7 -44 15 -11 8 -28 15 -39 15 -17 0 -37 9 -97 41 -8 4 -35 18 -60 30 -83 41 -247 184 -321 279 -65 84 -89 120 -89 133 0 8 -7 20 -15 27 -8 7 -15 20 -15 30 0 10 -7 23 -15 30 -8 7 -15 23 -15 35 0 12 -7 28 -15 35 -8 7 -15 27 -15 45 0 18 -7 38 -15 45 -8 7 -15 27 -15 46 0 18 -7 59 -15 91 -9 34 -15 102 -15 169 0 74 5 126 15 154 8 23 15 57 15 74 0 17 7 40 15 50 8 11 15 32 15 47 0 14 7 32 15 39 8 7 15 23 15 35 0 12 7 28 15 35 8 7 15 20 15 30 0 10 7 23 15 30 8 7 15 19 15 27 0 8 14 32 30 53 17 21 30 41 30 44 0 3 15 21 33 40 17 19 48 52 68 73 87 91 204 179 299 223 25 12 58 28 73 35 16 8 36 15 46 15 9 0 26 7 37 15 10 8 32 15 47 15 16 0 38 6 50 13 50 28 437 29 506 1z m-1719 1 c7 -8 18 -15 24 -15 21 0 76 -61 96 -108 19 -43 20 -68 20 -921 0 -803 -2 -881 -18 -938 -15 -56 -67 -133 -88 -133 -4 0 -16 -8 -26 -17 -27 -25 -198 -25 -225 0 -11 9 -23 17 -28 17 -15 0 -65 53 -65 69 0 9 -7 25 -15 35 -13 17 -15 147 -15 943 0 907 0 923 20 961 20 39 72 92 89 92 5 0 14 7 21 15 9 11 35 15 105 15 70 0 96 -4 105 -15z m3881 -4 c89 -40 129 -109 129 -223 0 -86 -18 -134 -68 -180 -50 -47 -83 -49 -565 -46 l-447 3 0 -198 0 -197 311 5 c170 2 314 7 318 9 4 3 32 -3 62 -12 53 -17 119 -70 119 -96 0 -8 7 -19 15 -26 11 -10 15 -35 15 -110 0 -75 -4 -100 -15 -110 -8 -7 -15 -18 -15 -24 -1 -14 -46 -66 -58 -66 -5 0 -15 -7 -22 -16 -12 -13 -57 -15 -372 -12 -234 2 -358 0 -358 -7 -1 -9 -1 -360 0 -394 0 -10 14 -12 68 -6 37 3 240 7 452 7 407 1 440 -2 489 -46 57 -51 71 -89 71 -190 0 -71 -4 -97 -15 -106 -8 -7 -15 -18 -15 -24 0 -22 -69 -73 -107 -81 -47 -9 -1218 -8 -1278 1 -59 8 -110 59 -124 122 -6 30 -13 387 -17 955 -6 868 -6 910 12 950 25 58 63 107 83 107 9 0 27 7 41 14 20 12 135 14 636 15 585 1 613 0 655 -18z m-1503 -254 c2 -15 -1 -27 -7 -27 -6 0 -11 3 -11 8 0 4 -3 18 -7 31 -4 18 -2 23 8 19 8 -2 15 -17 17 -31z m-18 -244 c0 -5 3 -18 6 -30 5 -17 2 -23 -10 -23 -9 0 -16 -4 -16 -10 0 -5 9 -10 20 -10 11 0 20 5 20 10 0 6 5 10 10 10 18 0 10 -26 -14 -50 -19 -17 -24 -29 -19 -50 3 -15 0 -37 -6 -49 -10 -18 -8 -25 14 -47 26 -26 26 -27 10 -61 -18 -37 -17 -74 4 -176 10 -47 10 -62 0 -74 -11 -12 -10 -17 4 -24 22 -13 21 -35 -3 -66 -22 -29 -26 -64 -8 -92 9 -14 8 -27 -6 -60 -18 -46 -15 -61 13 -61 10 0 20 -3 24 -6 9 -9 -4 -34 -18 -34 -18 0 -28 -72 -12 -85 11 -8 11 -15 0 -35 -7 -14 -13 -55 -13 -92 0 -39 -4 -68 -10 -68 -5 0 -10 18 -10 40 0 29 -4 40 -15 40 -9 0 -18 7 -21 15 -4 8 -12 15 -20 15 -8 0 -14 6 -14 14 0 22 -50 76 -70 76 -10 0 -20 7 -23 14 -4 11 -16 13 -41 9 -29 -4 -36 -2 -36 11 0 17 -20 20 -100 16 -25 -1 -49 -6 -54 -11 -6 -5 -23 -9 -39 -9 -20 0 -44 -13 -74 -40 -25 -22 -56 -40 -68 -40 -12 0 -28 -7 -35 -15 -8 -9 -21 -13 -35 -9 -17 4 -25 1 -30 -14 -5 -17 -12 -20 -40 -15 -19 3 -41 1 -47 -5 -17 -14 -146 -23 -154 -11 -3 6 -14 7 -23 4 -10 -3 -36 1 -58 9 -23 8 -63 18 -89 22 -29 4 -57 16 -71 30 -12 12 -33 26 -45 29 -26 8 -58 34 -58 47 0 5 -16 24 -35 44 -19 19 -35 44 -35 55 0 11 -7 22 -16 26 -20 7 -59 91 -74 159 -11 51 -8 213 5 233 3 6 15 11 26 11 25 0 36 27 21 51 -15 23 0 65 34 97 13 13 24 29 24 37 0 8 6 18 13 22 7 4 19 23 26 41 8 17 19 32 27 32 7 0 19 9 26 19 8 11 28 21 48 23 32 3 35 6 34 33 l-1 30 57 0 c48 0 63 4 85 25 22 21 29 23 46 12 12 -8 26 -9 36 -4 10 6 26 4 43 -5 22 -11 33 -11 54 -2 21 10 29 9 43 -3 17 -15 75 -27 132 -29 16 -1 27 -10 34 -30 9 -22 18 -29 37 -29 14 0 40 -13 59 -30 21 -20 52 -34 84 -41 29 -6 62 -17 74 -25 29 -18 37 -18 29 2 -7 17 -6 17 72 -3 15 -3 27 0 35 10 7 9 28 20 47 24 25 6 40 18 51 41 10 18 19 28 20 23 2 -6 14 -8 27 -4 19 4 22 10 18 30 -5 19 -1 25 19 33 14 5 25 17 25 28 0 10 3 22 7 25 9 9 23 9 23 0z m-2111 -387 c8 -10 7 -21 -5 -45 -21 -42 -34 -39 -34 7 0 52 15 67 39 38z m681 -11 c10 -12 10 -15 -4 -15 -9 0 -16 7 -16 15 0 8 2 15 4 15 2 0 9 -7 16 -15z m-642 -126 c2 -14 -4 -31 -12 -38 -11 -9 -12 -17 -5 -29 13 -22 -15 -92 -36 -92 -19 0 -20 43 -2 62 14 14 15 62 2 92 -5 12 -3 21 6 27 23 15 44 5 47 -22z m1712 -429 c0 -5 -12 -10 -26 -10 -14 0 -23 4 -19 10 3 6 15 10 26 10 10 0 19 -4 19 -10z m-1797 -472 c-11 -23 -11 -23 -18 4 -4 16 -4 36 0 45 6 16 8 16 18 -4 7 -16 7 -30 0 -45z"/> <path d="M8274 7194 c3 -9 6 -18 6 -20 0 -2 5 -4 10 -4 6 0 10 9 10 20 0 12 -7 20 -16 20 -11 0 -14 -5 -10 -16z"/> <path d="M5110 8845 c-8 -9 -29 -15 -56 -15 -23 0 -46 -4 -49 -10 -3 -5 -15 -10 -26 -10 -10 0 -19 5 -19 10 0 6 -5 10 -11 10 -6 0 -8 -9 -4 -21 6 -18 3 -20 -27 -17 -28 2 -34 -1 -36 -19 -2 -12 -10 -27 -18 -33 -8 -7 -14 -22 -14 -34 0 -13 -11 -32 -25 -44 -17 -15 -25 -33 -26 -54 -1 -81 -11 -153 -22 -160 -8 -5 -8 -13 1 -30 14 -26 10 -115 -7 -147 -11 -20 0 -38 17 -27 9 5 -1 -120 -10 -130 -4 -3 -3 -15 2 -24 6 -12 6 -29 -1 -50 -10 -26 -9 -33 6 -44 17 -12 17 -16 1 -62 -10 -31 -14 -63 -10 -82 8 -38 -7 -47 -57 -35 -26 7 -37 17 -45 42 -15 46 -76 104 -109 104 -18 0 -23 2 -14 8 11 6 9 14 -9 38 -12 17 -22 39 -22 50 0 11 -5 23 -11 26 -5 4 -14 18 -19 31 -6 14 -18 24 -30 24 -14 0 -20 7 -20 23 0 16 -9 28 -26 36 -21 9 -25 17 -21 36 2 14 1 25 -4 25 -16 0 -68 65 -84 106 -10 28 -30 51 -57 70 -23 16 -47 42 -54 59 -7 16 -24 41 -38 54 -14 14 -26 35 -26 48 0 13 -5 23 -10 23 -6 0 -15 12 -20 26 -8 19 -15 24 -30 19 -15 -5 -22 0 -29 18 -5 13 -23 30 -40 37 -17 7 -31 16 -31 20 0 5 -12 23 -27 40 -19 23 -32 31 -50 27 -15 -3 -27 2 -33 12 -7 13 -13 14 -28 4 -15 -9 -25 -8 -47 3 -36 19 -47 18 -74 -7 -18 -17 -29 -19 -62 -14 -38 7 -41 6 -34 -14 4 -12 2 -21 -4 -21 -6 0 -19 -9 -30 -21 -12 -13 -21 -17 -26 -10 -3 6 -11 9 -16 5 -6 -4 -6 -11 1 -19 8 -10 8 -15 -1 -20 -6 -4 -15 -2 -20 6 -10 17 -31 -34 -23 -56 4 -8 1 -15 -4 -15 -6 0 -14 -17 -17 -37 -3 -21 -11 -47 -18 -58 -6 -11 -11 -54 -11 -96 -1 -59 -5 -79 -19 -93 -19 -20 -19 -47 -1 -53 6 -2 14 5 17 17 8 32 37 25 37 -10 0 -19 -5 -30 -14 -30 -15 0 -29 -27 -21 -40 3 -5 1 -11 -5 -15 -17 -11 -11 -43 10 -50 22 -7 26 -20 10 -30 -6 -4 -8 -15 -5 -25 4 -13 -1 -22 -15 -30 -18 -10 -19 -12 -5 -34 13 -19 13 -29 4 -49 -7 -16 -8 -31 -1 -43 8 -16 3 -143 -8 -179 -1 -5 -1 -12 0 -15 3 -6 9 -80 10 -125 1 -16 7 -36 13 -44 9 -11 9 -15 0 -18 -20 -7 -16 -36 5 -31 13 4 18 -2 19 -25 2 -24 -1 -28 -15 -22 -31 13 -47 10 -46 -7 0 -10 1 -36 2 -59 2 -35 6 -42 32 -52 28 -11 44 -47 20 -47 -5 0 -10 6 -10 14 0 20 -30 29 -47 14 -13 -11 -12 -14 5 -28 15 -13 19 -27 18 -69 -1 -29 2 -55 6 -57 4 -3 4 -13 -2 -23 -5 -10 -6 -21 -3 -25 11 -10 3 -89 -10 -104 -9 -11 -7 -17 6 -27 12 -8 14 -14 6 -17 -14 -5 -21 -206 -7 -214 5 -3 8 -24 6 -46 -2 -29 2 -44 15 -53 9 -7 17 -20 17 -28 0 -10 16 -23 36 -32 23 -9 34 -20 31 -28 -3 -8 -1 -20 4 -28 7 -11 11 -11 17 -1 6 9 15 5 31 -17 13 -16 36 -33 51 -36 16 -3 31 -12 34 -20 4 -11 23 -13 93 -8 89 5 133 21 133 48 0 8 5 15 10 15 6 0 10 -7 10 -15 0 -27 17 -16 26 18 7 23 16 32 31 32 11 0 34 15 51 33 28 30 35 50 47 141 2 18 9 39 15 46 8 10 7 26 -4 60 -13 37 -14 49 -3 66 10 17 9 22 -7 35 -16 11 -17 14 -4 14 22 0 28 21 18 65 -13 56 -1 177 18 193 14 11 14 12 0 12 -8 0 -21 7 -28 15 -11 13 -10 20 1 41 10 19 10 29 1 44 -9 14 -8 21 2 29 25 21 25 48 0 62 -29 15 -30 35 -5 68 13 17 24 22 37 17 18 -7 18 -8 2 -17 -31 -17 -22 -39 17 -37 38 1 67 -16 59 -37 -3 -7 4 -18 15 -24 13 -7 20 -20 18 -34 -1 -16 3 -22 17 -20 24 2 62 -44 58 -69 -4 -22 27 -36 38 -18 14 23 30 2 20 -26 -13 -34 -14 -33 15 -44 22 -8 24 -12 13 -29 -7 -11 -8 -24 -4 -28 5 -4 11 -2 13 5 6 17 33 15 33 -2 0 -8 13 -26 30 -39 18 -16 25 -27 17 -30 -7 -2 3 -18 26 -39 28 -27 37 -42 34 -60 -2 -12 -2 -17 0 -10 7 21 38 9 41 -16 2 -12 8 -22 13 -22 7 0 8 -12 4 -30 -5 -22 -3 -30 7 -30 7 0 21 -9 31 -20 9 -11 26 -20 37 -20 22 0 26 -10 9 -27 -8 -8 4 -27 45 -69 54 -55 56 -60 45 -87 -6 -15 -9 -30 -6 -33 10 -10 27 7 27 27 0 28 19 23 31 -8 12 -31 37 -52 63 -53 15 0 17 -5 13 -30 -7 -32 3 -39 23 -15 7 8 18 15 25 15 7 0 15 -7 19 -15 3 -8 14 -15 25 -15 12 0 18 -6 17 -17 -1 -15 7 -18 51 -15 32 1 64 -3 82 -12 28 -15 29 -15 29 10 0 38 20 54 37 30 17 -23 45 -14 45 14 0 18 4 20 40 14 31 -5 40 -3 40 8 0 8 11 25 24 38 32 30 38 60 27 145 -4 39 -5 79 0 90 6 15 8 7 8 -26 1 -32 7 -51 20 -63 21 -19 47 -13 34 7 -4 7 -9 39 -10 72 -1 33 -8 70 -14 82 -9 16 -9 26 -1 35 13 17 17 68 7 91 -4 11 -3 23 4 30 8 8 7 15 -2 26 -9 12 -11 48 -5 146 8 153 7 129 5 238 -2 67 1 90 12 97 13 7 13 12 1 37 -8 15 -15 53 -16 83 -1 30 -3 62 -3 70 -3 44 7 187 14 203 4 10 2 23 -4 31 -6 7 -8 21 -5 30 4 10 1 28 -6 41 -8 16 -10 39 -6 67 10 61 12 239 4 245 -5 2 -8 17 -8 33 0 15 -6 30 -12 33 -10 3 -9 9 3 23 11 13 15 37 14 79 -2 78 -11 105 -36 105 -14 0 -19 7 -19 28 0 36 -31 66 -59 57 -15 -5 -21 -2 -21 9 0 11 -9 16 -26 16 -23 0 -25 3 -20 25 9 35 0 47 -23 33 -15 -9 -24 -7 -46 10 -33 26 -39 27 -55 7z m101 -111 c6 -8 16 -14 22 -14 16 0 67 -51 67 -67 0 -8 7 -16 15 -19 13 -5 15 -121 15 -959 0 -838 -2 -954 -15 -959 -8 -3 -15 -14 -15 -25 0 -16 -18 -35 -89 -93 -8 -7 -51 -11 -106 -10 -139 1 -144 5 -332 257 -62 82 -117 155 -123 162 -5 7 -10 17 -10 23 0 5 -4 10 -10 10 -5 0 -21 20 -36 45 -14 25 -30 45 -35 45 -5 0 -9 5 -9 11 0 7 -6 17 -14 23 -8 6 -41 49 -74 96 -34 47 -68 92 -75 101 -42 47 -197 260 -197 269 0 5 -5 10 -10 10 -6 0 -14 8 -17 18 -4 9 -33 53 -65 97 -119 165 -119 165 -114 8 8 -240 9 -960 1 -1008 -9 -56 -64 -135 -94 -135 -10 0 -24 -7 -31 -15 -9 -11 -34 -15 -100 -15 -66 0 -91 4 -100 15 -7 8 -17 15 -23 15 -19 0 -77 51 -77 68 0 9 -7 26 -15 36 -13 17 -15 146 -15 936 0 882 1 917 19 953 28 54 70 107 85 107 8 0 19 7 26 15 9 11 35 15 107 15 90 0 96 -1 138 -32 24 -18 44 -38 45 -45 0 -6 3 -13 8 -15 13 -5 82 -94 82 -105 0 -6 7 -13 15 -17 8 -3 15 -11 15 -18 0 -8 14 -28 30 -46 17 -18 30 -35 30 -38 0 -2 68 -94 150 -204 83 -110 150 -203 150 -208 0 -4 13 -21 28 -38 16 -16 37 -42 48 -59 10 -16 24 -34 31 -38 7 -4 13 -15 13 -22 0 -8 4 -15 8 -15 10 0 82 -96 82 -110 0 -5 4 -10 9 -10 5 0 20 -17 32 -37 13 -21 56 -82 96 -136 40 -54 73 -105 73 -113 0 -9 7 -14 18 -12 12 3 17 13 16 38 -1 19 -2 289 -3 599 l-2 564 43 44 c23 24 48 43 54 43 7 0 19 6 27 14 26 26 186 26 208 0z m176 -861 c-2 -16 -4 -5 -4 22 0 28 2 40 4 28 2 -13 2 -35 0 -50z m5 -176 l-9 -72 -1 100 c0 79 2 94 10 72 6 -18 7 -52 0 -100z m-2 -621 c-11 -30 -18 1 -12 54 l6 45 7 -40 c3 -22 3 -48 -1 -59z m-1913 -248 c-2 -13 -4 -5 -4 17 -1 22 1 32 4 23 2 -10 2 -28 0 -40z m573 -132 c0 -8 -4 -17 -9 -21 -12 -7 -24 12 -16 25 9 15 25 12 25 -4z"/> <path d="M5790 8850 c0 -13 20 -13 40 0 12 8 9 10 -12 10 -16 0 -28 -4 -28 -10z"/> <path d="M1352 8090 c0 -19 2 -27 5 -17 2 9 2 25 0 35 -3 9 -5 1 -5 -18z"/> <path d="M9530 8015 c0 -8 7 -15 15 -15 8 0 15 7 15 15 0 8 -7 15 -15 15 -8 0 -15 -7 -15 -15z"/> <path d="M1353 7875 c0 -22 2 -30 4 -17 2 12 2 30 0 40 -3 9 -5 -1 -4 -23z"/> <path d="M5812 6459 c2 -6 8 -10 13 -10 5 0 11 4 13 10 2 6 -4 11 -13 11 -9 0 -15 -5 -13 -11z"/> <path d="M4000 6420 c0 -23 -10 -24 -60 -10 -36 10 -53 0 -43 -26 2 -7 -9 -19 -25 -28 -18 -9 -32 -27 -37 -43 -3 -15 -16 -38 -27 -50 l-21 -22 27 -7 c31 -7 33 -15 6 -32 -21 -13 -27 -56 -11 -67 6 -3 14 3 20 12 9 16 10 16 11 -3 0 -27 -22 -46 -44 -38 -9 3 -16 1 -16 -5 0 -6 6 -11 14 -11 21 0 30 -18 17 -34 -13 -15 -5 -99 11 -133 6 -13 17 -23 25 -23 7 0 13 -4 13 -10 0 -5 -7 -10 -15 -10 -8 0 -15 5 -15 10 0 6 -4 10 -10 10 -5 0 -10 -13 -10 -29 0 -25 5 -31 30 -36 36 -8 39 -29 9 -61 l-21 -22 21 -21 c26 -26 26 -32 0 -54 -14 -12 -18 -24 -13 -35 4 -9 8 -51 8 -93 1 -77 14 -109 43 -109 12 0 11 -7 -6 -35 -19 -32 -19 -35 -3 -44 16 -9 15 -11 -3 -25 -17 -13 -18 -18 -7 -36 14 -23 9 -40 -12 -40 -17 0 -28 -38 -14 -46 5 -3 15 2 22 12 11 14 14 15 21 3 5 -7 8 -26 7 -42 -2 -16 2 -35 8 -42 8 -10 7 -25 -3 -56 -13 -38 -13 -45 0 -54 13 -9 13 -16 4 -34 -10 -17 -9 -28 3 -53 15 -28 14 -32 -1 -43 -21 -16 -10 -45 16 -45 29 0 54 -41 45 -75 -7 -26 -5 -27 25 -23 23 3 31 1 31 -11 0 -12 3 -12 12 -3 7 7 27 12 45 12 27 0 35 5 43 25 5 14 16 25 23 25 7 0 24 11 37 25 13 14 28 25 33 25 15 0 97 72 97 85 0 7 21 24 48 38 26 13 49 33 51 43 5 25 21 35 48 29 26 -6 39 11 23 30 -16 20 -3 40 16 24 8 -6 14 -8 14 -3 0 5 14 17 30 26 18 10 30 25 30 38 0 11 7 20 15 20 9 0 21 11 27 25 8 18 19 25 38 25 20 0 29 6 33 21 4 14 11 20 21 16 9 -4 19 1 24 9 4 8 21 18 38 23 21 5 30 14 32 33 2 17 20 40 50 65 26 21 60 53 75 71 16 17 35 32 42 32 7 0 16 7 19 16 4 9 9 14 13 11 9 -10 43 12 43 28 0 8 6 15 14 15 8 0 18 9 21 20 3 11 17 23 30 26 13 3 27 15 30 25 4 10 10 19 15 19 4 0 10 9 13 20 3 12 17 22 34 26 18 3 38 19 52 40 13 19 30 34 38 34 7 0 23 16 34 35 24 40 34 44 42 15 3 -11 10 -20 16 -20 7 0 9 10 5 25 -10 41 65 109 79 73 3 -7 6 -2 6 12 1 14 6 32 11 40 8 13 13 13 31 2 20 -13 21 -12 15 12 -5 19 -2 26 8 26 8 0 27 15 43 34 15 18 38 39 51 45 15 8 22 21 22 41 0 20 6 31 20 35 11 3 20 9 20 13 0 13 -26 82 -33 88 -4 4 -7 17 -7 29 0 24 -64 62 -75 44 -4 -5 -11 -7 -16 -3 -7 4 -7 10 0 18 7 8 2 19 -15 35 -35 33 -113 27 -175 -15 -24 -17 -52 -33 -61 -37 -10 -3 -18 -11 -18 -17 0 -5 -9 -10 -20 -10 -12 0 -25 -13 -36 -35 -10 -22 -31 -43 -54 -55 -21 -11 -40 -26 -43 -35 -4 -8 -15 -15 -26 -15 -11 0 -24 -6 -28 -14 -4 -8 -17 -15 -27 -17 -13 -3 -23 -16 -28 -37 -8 -28 -11 -32 -23 -22 -20 16 -41 -1 -50 -40 -4 -19 -17 -34 -38 -44 -18 -8 -43 -31 -56 -51 -13 -19 -29 -35 -36 -35 -7 0 -28 -14 -46 -31 -23 -21 -39 -29 -55 -25 -18 5 -23 1 -28 -24 -4 -22 -11 -30 -26 -30 -14 0 -20 -6 -18 -17 2 -11 -8 -22 -24 -31 -16 -7 -33 -22 -38 -33 -8 -13 -19 -19 -37 -17 -21 2 -26 -2 -28 -20 -1 -13 -16 -35 -33 -49 -18 -13 -32 -30 -32 -36 0 -7 -13 -21 -27 -31 -25 -18 -27 -18 -37 -3 -9 14 -13 12 -26 -16 -8 -17 -24 -33 -35 -35 -11 -3 -24 -10 -28 -18 -10 -17 -43 -18 -49 -1 -2 6 -3 44 -1 83 2 56 -1 75 -13 85 -13 10 -17 10 -25 -2 -7 -12 -9 -12 -9 2 0 20 20 39 42 39 16 0 16 2 -3 21 -17 17 -23 19 -30 8 -6 -9 -9 7 -9 43 0 43 3 56 13 52 9 -3 13 6 13 31 0 19 -4 35 -8 35 -4 0 -8 18 -8 40 0 29 -5 42 -20 50 -24 13 -28 60 -5 60 17 0 21 35 5 45 -15 9 -12 25 5 25 8 0 15 -4 15 -10 0 -5 5 -10 10 -10 15 0 12 26 -5 40 -12 10 -18 10 -30 0 -13 -11 -15 -8 -15 13 0 14 4 28 10 32 5 3 7 12 4 20 -3 8 -1 30 6 49 14 42 1 73 -32 78 -18 2 -24 11 -26 36 -3 24 -8 32 -24 32 -12 0 -22 8 -25 20 -4 14 -11 19 -23 15 -10 -3 -21 -1 -25 5 -11 19 -45 11 -45 -10z m100 -112 c0 -29 5 -80 10 -113 6 -33 15 -134 20 -225 6 -91 14 -183 20 -205 5 -22 10 -89 10 -150 0 -60 5 -165 12 -232 13 -138 19 -144 71 -90 18 17 56 52 86 77 30 25 66 57 81 71 26 27 72 67 165 144 27 22 53 45 59 50 42 40 139 127 180 160 27 22 56 47 64 55 8 8 28 25 45 37 16 12 48 39 70 60 48 44 171 150 243 208 27 22 81 69 119 105 109 102 96 98 162 48 32 -23 67 -48 78 -54 39 -22 42 -42 10 -70 -17 -14 -41 -35 -55 -47 -14 -12 -47 -40 -75 -61 -27 -22 -72 -61 -100 -87 -79 -73 -107 -98 -154 -138 -51 -41 -124 -103 -131 -112 -11 -12 -129 -116 -175 -154 -26 -22 -54 -45 -60 -52 -7 -7 -50 -44 -95 -83 -45 -39 -88 -76 -95 -83 -18 -17 -62 -55 -130 -111 -33 -27 -74 -63 -91 -80 -17 -17 -52 -49 -79 -71 -121 -101 -145 -121 -219 -188 -44 -40 -87 -80 -97 -91 -45 -47 -55 -6 -69 274 -4 96 -13 193 -19 215 -6 22 -11 94 -11 160 0 66 -7 161 -15 210 -8 50 -15 134 -15 188 0 54 -6 130 -14 170 -8 40 -16 118 -18 175 -4 97 -3 103 17 107 59 11 73 15 105 23 19 6 47 10 63 11 26 1 27 -1 27 -51z m10 -1508 c0 -5 -7 -10 -15 -10 -8 0 -15 5 -15 10 0 6 7 10 15 10 8 0 15 -4 15 -10z"/> <path d="M4220 6215 c0 -17 5 -25 13 -22 6 2 12 12 12 22 0 10 -6 20 -12 23 -8 2 -13 -6 -13 -23z"/> <path d="M1352 6140 c0 -19 2 -27 5 -17 2 9 2 25 0 35 -3 9 -5 1 -5 -18z"/> <path d="M1348 6078 c-3 -7 -2 -38 2 -68 l7 -55 2 68 c1 65 -2 80 -11 55z"/> <path d="M1353 5710 c0 -25 2 -35 4 -22 2 12 2 32 0 45 -2 12 -4 2 -4 -23z"/> <path d="M4640 5176 c0 -8 5 -18 10 -21 6 -3 10 1 10 9 0 8 -4 18 -10 21 -5 3 -10 -1 -10 -9z"/> <path d="M1337 4646 c-3 -8 2 -16 14 -19 19 -5 20 -13 17 -234 -3 -203 -1 -232 15 -266 15 -31 18 -58 15 -157 -2 -80 1 -123 8 -130 18 -18 23 27 20 165 -2 93 -6 121 -17 123 -12 2 -14 46 -15 252 0 189 -3 252 -13 264 -17 20 -37 21 -44 2z"/> <path d="M1460 4016 c0 -115 7 -176 20 -176 9 0 13 209 4 255 -13 69 -24 33 -24 -79z"/> <path d="M1490 3731 c0 -77 3 -100 15 -104 10 -4 15 -26 17 -73 2 -43 8 -69 16 -72 18 -6 16 109 -3 134 -9 12 -14 43 -15 85 0 37 -3 81 -6 98 -13 62 -24 29 -24 -68z"/> <path d="M1434 3775 c-11 -24 -12 -120 -1 -131 17 -17 24 15 18 81 -6 54 -9 65 -17 50z"/> <path d="M1468 3594 c-11 -10 -10 -96 1 -113 6 -9 10 -1 12 26 5 47 -3 98 -13 87z"/> <path d="M1397 3573 c-13 -12 -7 -78 11 -128 10 -28 19 -69 20 -93 1 -23 6 -50 12 -60 5 -9 14 -36 20 -60 8 -32 15 -42 28 -40 22 4 28 46 8 54 -10 4 -16 18 -16 38 0 17 -7 40 -15 50 -8 11 -15 37 -15 58 0 26 -5 41 -16 45 -11 4 -15 17 -13 47 4 86 -3 111 -24 89z"/> <path d="M1490 3416 c0 -49 16 -62 26 -22 8 32 2 58 -13 64 -9 2 -13 -10 -13 -42z"/> <path d="M1557 3453 c-13 -12 -7 -81 8 -97 8 -8 15 -32 15 -56 0 -27 5 -43 15 -46 10 -4 15 -20 15 -44 0 -21 7 -43 15 -50 8 -7 15 -22 15 -34 0 -12 7 -31 15 -42 8 -10 15 -29 15 -42 0 -12 7 -25 15 -28 8 -4 15 -18 15 -34 0 -15 7 -33 15 -40 8 -7 15 -23 15 -37 0 -13 7 -26 15 -29 8 -4 15 -15 15 -25 0 -20 37 -96 51 -105 5 -3 9 -12 9 -20 0 -8 8 -22 19 -33 10 -10 21 -25 23 -32 3 -8 9 -10 14 -6 4 4 3 16 -4 25 -7 9 -15 24 -18 32 -3 8 -9 22 -14 30 -5 8 -19 35 -30 60 -12 25 -26 52 -31 60 -5 8 -12 22 -15 30 -3 8 -12 28 -20 43 -7 16 -14 34 -14 42 0 7 -7 18 -15 25 -8 7 -15 25 -15 39 0 15 -7 36 -15 47 -8 10 -15 29 -15 40 0 12 -7 27 -15 34 -8 7 -15 28 -15 47 0 21 -6 36 -15 39 -10 4 -15 20 -15 44 0 21 -7 43 -15 50 -9 7 -15 29 -15 54 0 43 -11 71 -23 59z"/> <path d="M1527 3323 c-11 -10 -8 -73 3 -73 6 0 10 18 10 40 0 41 -2 45 -13 33z"/> <path d="M1550 3201 c0 -17 5 -33 10 -36 6 -4 10 8 10 29 0 20 -4 36 -10 36 -5 0 -10 -13 -10 -29z"/> <path d="M1490 3146 c0 -13 7 -29 15 -36 9 -7 13 -20 10 -30 -3 -10 5 -26 20 -40 14 -13 25 -18 25 -12 0 7 -4 12 -10 12 -5 0 -10 10 -10 22 0 21 -37 108 -46 108 -2 0 -4 -11 -4 -24z"/> <path d="M1580 3111 c0 -16 7 -36 15 -45 8 -8 15 -28 15 -45 0 -17 5 -31 10 -31 16 0 12 60 -5 76 -8 9 -15 29 -15 45 0 16 -4 29 -10 29 -5 0 -10 -13 -10 -29z"/> <path d="M1640 2961 c0 -22 16 -36 24 -22 8 12 -3 41 -15 41 -5 0 -9 -9 -9 -19z"/> <path d="M1576 2934 c-7 -18 0 -34 15 -34 12 0 12 37 0 44 -5 3 -12 -1 -15 -10z"/> <path d="M1673 2894 c-3 -8 -1 -20 6 -27 8 -8 11 -4 11 16 0 30 -7 35 -17 11z"/> <path d="M1610 2841 c0 -19 26 -48 36 -39 7 7 -17 58 -28 58 -4 0 -8 -8 -8 -19z"/> <path d="M1700 2826 c0 -8 5 -18 10 -21 6 -3 10 3 10 14 0 12 -4 21 -10 21 -5 0 -10 -6 -10 -14z"/> <path d="M1710 2650 c0 -12 28 -25 36 -17 3 3 -4 10 -15 17 -15 7 -21 7 -21 0z"/> <path d="M1880 2629 c0 -6 14 -28 30 -49 17 -21 30 -42 30 -47 0 -5 13 -20 28 -33 15 -14 38 -42 51 -62 12 -21 27 -38 32 -38 5 0 9 -6 9 -12 0 -16 44 -58 59 -58 6 0 11 -9 11 -20 0 -22 37 -47 51 -33 4 4 -12 28 -36 52 -25 24 -45 48 -45 52 0 4 -21 30 -47 56 -27 26 -57 64 -67 84 -20 38 -88 119 -99 119 -4 0 -7 -5 -7 -11z"/> <path d="M1760 2591 c0 -12 5 -21 10 -21 6 0 10 6 10 14 0 8 -4 18 -10 21 -5 3 -10 -3 -10 -14z"/> <path d="M1790 2536 c0 -14 5 -26 10 -26 6 0 10 9 10 19 0 11 -4 23 -10 26 -6 4 -10 -5 -10 -19z"/> <path d="M1820 2485 c0 -8 5 -15 10 -15 6 0 10 7 10 15 0 8 -4 15 -10 15 -5 0 -10 -7 -10 -15z"/> <path d="M1910 2365 c0 -8 5 -15 10 -15 6 0 10 7 10 15 0 8 -4 15 -10 15 -5 0 -10 -7 -10 -15z"/> <path d="M1950 2312 c0 -12 60 -75 66 -69 7 7 -35 65 -53 71 -7 3 -13 2 -13 -2z"/> <path d="M2030 2225 c0 -7 38 -46 63 -64 29 -22 19 5 -14 38 -28 28 -49 39 -49 26z"/> <path d="M2240 2200 c0 -6 8 -14 18 -17 9 -4 20 -11 24 -17 4 -6 9 -8 12 -5 3 3 -1 15 -10 27 -16 23 -44 30 -44 12z"/> <path d="M2120 2142 c0 -16 39 -54 51 -50 6 2 -4 16 -21 33 -16 16 -30 23 -30 17z"/> <path d="M2367 2093 c8 -25 32 -43 49 -36 22 8 17 21 -16 38 -37 19 -41 19 -33 -2z"/> <path d="M2460 2022 c0 -13 38 -23 46 -11 3 5 1 9 -5 9 -5 0 -16 3 -25 6 -9 3 -16 2 -16 -4z"/> <path d="M2520 1993 c1 -5 12 -17 27 -28 14 -11 33 -28 41 -37 9 -10 22 -18 28 -18 17 0 74 -33 74 -42 0 -5 13 -8 29 -8 16 0 31 -6 35 -15 3 -8 12 -15 21 -15 8 0 32 -9 52 -20 21 -11 43 -20 49 -20 7 0 25 -7 40 -15 16 -8 36 -15 45 -15 9 0 22 -7 29 -15 7 -9 20 -13 28 -10 8 3 30 -4 49 -15 19 -11 47 -20 63 -20 16 0 41 -6 57 -14 79 -39 235 -68 255 -48 13 13 -27 32 -65 32 -12 0 -51 9 -87 21 -36 11 -87 22 -114 24 -26 3 -63 14 -81 25 -18 11 -39 18 -47 15 -8 -3 -20 1 -27 9 -7 9 -29 18 -50 22 -20 4 -44 15 -54 25 -10 11 -31 19 -48 19 -16 0 -61 16 -100 35 -39 19 -77 35 -85 35 -8 0 -22 9 -31 20 -10 11 -25 20 -34 20 -9 0 -22 7 -30 16 -15 19 -69 48 -69 37z"/> <path d="M2830 1750 c-12 -8 -11 -10 8 -10 12 0 22 5 22 10 0 13 -11 13 -30 0z"/> <path d="M3194 1635 c-18 -14 -17 -14 15 -15 29 0 32 2 21 15 -15 18 -12 18 -36 0z"/> <path d="M3433 1583 c-20 -8 -15 -23 7 -23 11 0 20 7 20 15 0 15 -6 17 -27 8z"/> </g> </svg> 